<svg xmlns="http://www.w3.org/2000/svg" width="1400" height="1000" viewBox="0 0 1400 1000"><defs><filter id="b" x="-25%" y="-25%" width="150%" height="150%"><feGaussianBlur stdDeviation="4"/></filter></defs><g filter="url(#b)"><path d="M0,-38 C22,-22 22,22 0,38 C-22,22 -22,-22 0,-38 Z" transform="translate(198,100) rotate(222) scale(2.53)" fill="#5a3d26" opacity="0.090"/><path d="M0,-38 C22,-22 22,22 0,38 C-22,22 -22,-22 0,-38 Z" transform="translate(1357,109) rotate(131) scale(2.57)" fill="#5a3d26" opacity="0.115"/><path d="M0,-38 C22,-22 22,22 0,38 C-22,22 -22,-22 0,-38 Z" transform="translate(286,15) rotate(100) scale(1.95)" fill="#5a3d26" opacity="0.093"/><path d="M0,-38 C22,-22 22,22 0,38 C-22,22 -22,-22 0,-38 Z" transform="translate(1245,76) rotate(209) scale(1.10)" fill="#5a3d26" opacity="0.150"/><path d="M0,-38 C22,-22 22,22 0,38 C-22,22 -22,-22 0,-38 Z" transform="translate(1072,881) rotate(189) scale(1.20)" fill="#5a3d26" opacity="0.131"/><path d="M0,-38 C22,-22 22,22 0,38 C-22,22 -22,-22 0,-38 Z" transform="translate(16,868) rotate(167) scale(1.96)" fill="#5a3d26" opacity="0.161"/><path d="M0,-38 C22,-22 22,22 0,38 C-22,22 -22,-22 0,-38 Z" transform="translate(1153,395) rotate(77) scale(1.48)" fill="#5a3d26" opacity="0.163"/><path d="M0,-38 C22,-22 22,22 0,38 C-22,22 -22,-22 0,-38 Z" transform="translate(1120,985) rotate(333) scale(1.62)" fill="#5a3d26" opacity="0.173"/><path d="M0,-38 C22,-22 22,22 0,38 C-22,22 -22,-22 0,-38 Z" transform="translate(-44,446) rotate(158) scale(2.05)" fill="#5a3d26" opacity="0.108"/><path d="M0,-38 C22,-22 22,22 0,38 C-22,22 -22,-22 0,-38 Z" transform="translate(94,1) rotate(219) scale(1.49)" fill="#5a3d26" opacity="0.124"/><path d="M0,-38 C22,-22 22,22 0,38 C-22,22 -22,-22 0,-38 Z" transform="translate(670,473) rotate(57) scale(1.17)" fill="#5a3d26" opacity="0.071"/><path d="M0,-38 C22,-22 22,22 0,38 C-22,22 -22,-22 0,-38 Z" transform="translate(715,848) rotate(196) scale(0.94)" fill="#5a3d26" opacity="0.161"/><path d="M0,-38 C22,-22 22,22 0,38 C-22,22 -22,-22 0,-38 Z" transform="translate(-31,201) rotate(105) scale(1.91)" fill="#5a3d26" opacity="0.067"/><path d="M0,-38 C22,-22 22,22 0,38 C-22,22 -22,-22 0,-38 Z" transform="translate(221,327) rotate(63) scale(1.93)" fill="#5a3d26" opacity="0.113"/><path d="M0,-38 C22,-22 22,22 0,38 C-22,22 -22,-22 0,-38 Z" transform="translate(1123,2) rotate(18) scale(2.52)" fill="#5a3d26" opacity="0.177"/><path d="M0,-38 C22,-22 22,22 0,38 C-22,22 -22,-22 0,-38 Z" transform="translate(1137,49) rotate(338) scale(2.29)" fill="#5a3d26" opacity="0.161"/><path d="M0,-38 C22,-22 22,22 0,38 C-22,22 -22,-22 0,-38 Z" transform="translate(228,857) rotate(313) scale(1.07)" fill="#5a3d26" opacity="0.159"/><path d="M0,-38 C22,-22 22,22 0,38 C-22,22 -22,-22 0,-38 Z" transform="translate(473,1) rotate(344) scale(1.31)" fill="#5a3d26" opacity="0.148"/><path d="M0,-38 C22,-22 22,22 0,38 C-22,22 -22,-22 0,-38 Z" transform="translate(-57,479) rotate(12) scale(1.03)" fill="#5a3d26" opacity="0.071"/><path d="M0,-38 C22,-22 22,22 0,38 C-22,22 -22,-22 0,-38 Z" transform="translate(1468,251) rotate(175) scale(1.56)" fill="#5a3d26" opacity="0.140"/><path d="M0,-38 C22,-22 22,22 0,38 C-22,22 -22,-22 0,-38 Z" transform="translate(1323,362) rotate(138) scale(0.68)" fill="#5a3d26" opacity="0.163"/><path d="M0,-38 C22,-22 22,22 0,38 C-22,22 -22,-22 0,-38 Z" transform="translate(842,348) rotate(188) scale(2.20)" fill="#5a3d26" opacity="0.127"/><path d="M0,-38 C22,-22 22,22 0,38 C-22,22 -22,-22 0,-38 Z" transform="translate(156,321) rotate(234) scale(0.98)" fill="#5a3d26" opacity="0.167"/><path d="M0,-38 C22,-22 22,22 0,38 C-22,22 -22,-22 0,-38 Z" transform="translate(297,324) rotate(140) scale(1.47)" fill="#5a3d26" opacity="0.075"/><path d="M0,-38 C22,-22 22,22 0,38 C-22,22 -22,-22 0,-38 Z" transform="translate(653,352) rotate(225) scale(0.99)" fill="#5a3d26" opacity="0.119"/><path d="M0,-38 C22,-22 22,22 0,38 C-22,22 -22,-22 0,-38 Z" transform="translate(1393,542) rotate(194) scale(0.91)" fill="#5a3d26" opacity="0.169"/><path d="M0,-38 C22,-22 22,22 0,38 C-22,22 -22,-22 0,-38 Z" transform="translate(-43,46) rotate(290) scale(0.97)" fill="#5a3d26" opacity="0.152"/><path d="M0,-38 C22,-22 22,22 0,38 C-22,22 -22,-22 0,-38 Z" transform="translate(784,879) rotate(293) scale(2.13)" fill="#5a3d26" opacity="0.106"/><path d="M0,-38 C22,-22 22,22 0,38 C-22,22 -22,-22 0,-38 Z" transform="translate(176,797) rotate(299) scale(0.83)" fill="#5a3d26" opacity="0.062"/><path d="M0,-38 C22,-22 22,22 0,38 C-22,22 -22,-22 0,-38 Z" transform="translate(22,721) rotate(150) scale(1.11)" fill="#5a3d26" opacity="0.079"/><path d="M0,-38 C22,-22 22,22 0,38 C-22,22 -22,-22 0,-38 Z" transform="translate(1206,107) rotate(266) scale(1.60)" fill="#5a3d26" opacity="0.131"/><path d="M0,-38 C22,-22 22,22 0,38 C-22,22 -22,-22 0,-38 Z" transform="translate(1059,336) rotate(87) scale(2.00)" fill="#5a3d26" opacity="0.101"/><path d="M0,-38 C22,-22 22,22 0,38 C-22,22 -22,-22 0,-38 Z" transform="translate(58,265) rotate(207) scale(0.99)" fill="#5a3d26" opacity="0.149"/><path d="M0,-38 C22,-22 22,22 0,38 C-22,22 -22,-22 0,-38 Z" transform="translate(285,484) rotate(287) scale(1.37)" fill="#5a3d26" opacity="0.096"/><path d="M0,-38 C22,-22 22,22 0,38 C-22,22 -22,-22 0,-38 Z" transform="translate(1132,615) rotate(345) scale(1.96)" fill="#5a3d26" opacity="0.112"/><path d="M0,-38 C22,-22 22,22 0,38 C-22,22 -22,-22 0,-38 Z" transform="translate(993,373) rotate(37) scale(2.20)" fill="#5a3d26" opacity="0.150"/><path d="M0,-38 C22,-22 22,22 0,38 C-22,22 -22,-22 0,-38 Z" transform="translate(1326,179) rotate(146) scale(0.78)" fill="#5a3d26" opacity="0.135"/><path d="M0,-38 C22,-22 22,22 0,38 C-22,22 -22,-22 0,-38 Z" transform="translate(292,521) rotate(257) scale(1.06)" fill="#5a3d26" opacity="0.108"/><path d="M0,-38 C22,-22 22,22 0,38 C-22,22 -22,-22 0,-38 Z" transform="translate(1250,19) rotate(70) scale(1.85)" fill="#5a3d26" opacity="0.132"/><path d="M0,-38 C22,-22 22,22 0,38 C-22,22 -22,-22 0,-38 Z" transform="translate(711,113) rotate(226) scale(2.55)" fill="#5a3d26" opacity="0.132"/><path d="M0,-38 C22,-22 22,22 0,38 C-22,22 -22,-22 0,-38 Z" transform="translate(1227,571) rotate(43) scale(1.69)" fill="#5a3d26" opacity="0.089"/><path d="M0,-38 C22,-22 22,22 0,38 C-22,22 -22,-22 0,-38 Z" transform="translate(851,683) rotate(162) scale(0.82)" fill="#5a3d26" opacity="0.165"/><path d="M0,-38 C22,-22 22,22 0,38 C-22,22 -22,-22 0,-38 Z" transform="translate(-57,151) rotate(68) scale(2.37)" fill="#5a3d26" opacity="0.063"/><path d="M0,-38 C22,-22 22,22 0,38 C-22,22 -22,-22 0,-38 Z" transform="translate(223,141) rotate(278) scale(1.84)" fill="#5a3d26" opacity="0.065"/><path d="M0,-38 C22,-22 22,22 0,38 C-22,22 -22,-22 0,-38 Z" transform="translate(74,924) rotate(212) scale(1.44)" fill="#5a3d26" opacity="0.089"/><path d="M0,-38 C22,-22 22,22 0,38 C-22,22 -22,-22 0,-38 Z" transform="translate(77,403) rotate(221) scale(1.15)" fill="#5a3d26" opacity="0.125"/><path d="M0,-38 C22,-22 22,22 0,38 C-22,22 -22,-22 0,-38 Z" transform="translate(698,719) rotate(48) scale(0.65)" fill="#5a3d26" opacity="0.118"/><path d="M0,-38 C22,-22 22,22 0,38 C-22,22 -22,-22 0,-38 Z" transform="translate(1346,756) rotate(259) scale(1.92)" fill="#5a3d26" opacity="0.140"/><path d="M0,-38 C22,-22 22,22 0,38 C-22,22 -22,-22 0,-38 Z" transform="translate(333,233) rotate(308) scale(1.62)" fill="#5a3d26" opacity="0.061"/><path d="M0,-38 C22,-22 22,22 0,38 C-22,22 -22,-22 0,-38 Z" transform="translate(1204,912) rotate(55) scale(2.03)" fill="#5a3d26" opacity="0.086"/><path d="M0,-38 C22,-22 22,22 0,38 C-22,22 -22,-22 0,-38 Z" transform="translate(53,456) rotate(355) scale(1.80)" fill="#5a3d26" opacity="0.077"/><path d="M0,-38 C22,-22 22,22 0,38 C-22,22 -22,-22 0,-38 Z" transform="translate(663,889) rotate(243) scale(1.26)" fill="#5a3d26" opacity="0.080"/><path d="M0,-38 C22,-22 22,22 0,38 C-22,22 -22,-22 0,-38 Z" transform="translate(209,23) rotate(130) scale(1.85)" fill="#5a3d26" opacity="0.071"/><path d="M0,-38 C22,-22 22,22 0,38 C-22,22 -22,-22 0,-38 Z" transform="translate(1360,49) rotate(161) scale(1.55)" fill="#5a3d26" opacity="0.139"/><path d="M0,-38 C22,-22 22,22 0,38 C-22,22 -22,-22 0,-38 Z" transform="translate(441,246) rotate(18) scale(2.32)" fill="#5a3d26" opacity="0.062"/><path d="M0,-38 C22,-22 22,22 0,38 C-22,22 -22,-22 0,-38 Z" transform="translate(365,196) rotate(120) scale(2.59)" fill="#5a3d26" opacity="0.061"/><path d="M0,-38 C22,-22 22,22 0,38 C-22,22 -22,-22 0,-38 Z" transform="translate(265,76) rotate(318) scale(1.93)" fill="#5a3d26" opacity="0.070"/><path d="M0,-38 C22,-22 22,22 0,38 C-22,22 -22,-22 0,-38 Z" transform="translate(768,757) rotate(273) scale(1.71)" fill="#5a3d26" opacity="0.073"/><path d="M0,-38 C22,-22 22,22 0,38 C-22,22 -22,-22 0,-38 Z" transform="translate(263,585) rotate(120) scale(0.71)" fill="#5a3d26" opacity="0.132"/><path d="M0,-38 C22,-22 22,22 0,38 C-22,22 -22,-22 0,-38 Z" transform="translate(-39,23) rotate(24) scale(1.97)" fill="#5a3d26" opacity="0.066"/><path d="M0,-38 C22,-22 22,22 0,38 C-22,22 -22,-22 0,-38 Z" transform="translate(1148,223) rotate(210) scale(1.04)" fill="#5a3d26" opacity="0.169"/><path d="M0,-38 C22,-22 22,22 0,38 C-22,22 -22,-22 0,-38 Z" transform="translate(1218,637) rotate(196) scale(1.30)" fill="#5a3d26" opacity="0.170"/><path d="M0,-38 C22,-22 22,22 0,38 C-22,22 -22,-22 0,-38 Z" transform="translate(1113,239) rotate(97) scale(1.68)" fill="#5a3d26" opacity="0.090"/><path d="M0,-38 C22,-22 22,22 0,38 C-22,22 -22,-22 0,-38 Z" transform="translate(1191,151) rotate(289) scale(1.43)" fill="#5a3d26" opacity="0.086"/><path d="M0,-38 C22,-22 22,22 0,38 C-22,22 -22,-22 0,-38 Z" transform="translate(1360,577) rotate(88) scale(1.63)" fill="#5a3d26" opacity="0.164"/><path d="M0,-38 C22,-22 22,22 0,38 C-22,22 -22,-22 0,-38 Z" transform="translate(223,109) rotate(352) scale(1.69)" fill="#5a3d26" opacity="0.138"/><path d="M0,-38 C22,-22 22,22 0,38 C-22,22 -22,-22 0,-38 Z" transform="translate(236,294) rotate(156) scale(2.54)" fill="#5a3d26" opacity="0.120"/><path d="M0,-38 C22,-22 22,22 0,38 C-22,22 -22,-22 0,-38 Z" transform="translate(141,877) rotate(317) scale(1.59)" fill="#5a3d26" opacity="0.176"/><path d="M0,-38 C22,-22 22,22 0,38 C-22,22 -22,-22 0,-38 Z" transform="translate(908,42) rotate(310) scale(1.64)" fill="#5a3d26" opacity="0.177"/><path d="M0,-38 C22,-22 22,22 0,38 C-22,22 -22,-22 0,-38 Z" transform="translate(269,791) rotate(223) scale(0.62)" fill="#5a3d26" opacity="0.068"/></g></svg>