<svg xmlns="http://www.w3.org/2000/svg" width="1200" height="1500" viewBox="0 0 1200 1500"><defs><filter id="b" x="-25%" y="-25%" width="150%" height="150%"><feGaussianBlur stdDeviation="10"/></filter></defs><g filter="url(#b)"><path d="M0,-36 C21,-21 21,21 0,36 C-21,21 -21,-21 0,-36 Z" transform="translate(891,173) rotate(340) scale(1.96)" fill="#5a3d26" opacity="0.137"/><path d="M0,-36 C21,-21 21,21 0,36 C-21,21 -21,-21 0,-36 Z" transform="translate(79,173) rotate(109) scale(1.59)" fill="#5a3d26" opacity="0.106"/><path d="M0,-36 C21,-21 21,21 0,36 C-21,21 -21,-21 0,-36 Z" transform="translate(-17,363) rotate(48) scale(0.99)" fill="#5a3d26" opacity="0.067"/><path d="M0,-36 C21,-21 21,21 0,36 C-21,21 -21,-21 0,-36 Z" transform="translate(727,851) rotate(138) scale(1.69)" fill="#5a3d26" opacity="0.121"/><path d="M0,-36 C21,-21 21,21 0,36 C-21,21 -21,-21 0,-36 Z" transform="translate(864,724) rotate(147) scale(1.60)" fill="#5a3d26" opacity="0.083"/><path d="M0,-36 C21,-21 21,21 0,36 C-21,21 -21,-21 0,-36 Z" transform="translate(770,1204) rotate(117) scale(0.97)" fill="#5a3d26" opacity="0.138"/><path d="M0,-36 C21,-21 21,21 0,36 C-21,21 -21,-21 0,-36 Z" transform="translate(910,646) rotate(276) scale(1.02)" fill="#5a3d26" opacity="0.072"/><path d="M0,-36 C21,-21 21,21 0,36 C-21,21 -21,-21 0,-36 Z" transform="translate(235,101) rotate(125) scale(1.91)" fill="#5a3d26" opacity="0.076"/><path d="M0,-36 C21,-21 21,21 0,36 C-21,21 -21,-21 0,-36 Z" transform="translate(295,55) rotate(203) scale(1.39)" fill="#5a3d26" opacity="0.115"/><path d="M0,-36 C21,-21 21,21 0,36 C-21,21 -21,-21 0,-36 Z" transform="translate(816,229) rotate(117) scale(2.24)" fill="#5a3d26" opacity="0.118"/><path d="M0,-36 C21,-21 21,21 0,36 C-21,21 -21,-21 0,-36 Z" transform="translate(96,1076) rotate(216) scale(1.80)" fill="#5a3d26" opacity="0.075"/><path d="M0,-36 C21,-21 21,21 0,36 C-21,21 -21,-21 0,-36 Z" transform="translate(586,0) rotate(323) scale(0.69)" fill="#5a3d26" opacity="0.095"/><path d="M0,-36 C21,-21 21,21 0,36 C-21,21 -21,-21 0,-36 Z" transform="translate(1170,1462) rotate(134) scale(1.88)" fill="#5a3d26" opacity="0.128"/><path d="M0,-36 C21,-21 21,21 0,36 C-21,21 -21,-21 0,-36 Z" transform="translate(1059,821) rotate(280) scale(2.08)" fill="#5a3d26" opacity="0.082"/><path d="M0,-36 C21,-21 21,21 0,36 C-21,21 -21,-21 0,-36 Z" transform="translate(451,467) rotate(108) scale(0.84)" fill="#5a3d26" opacity="0.088"/><path d="M0,-36 C21,-21 21,21 0,36 C-21,21 -21,-21 0,-36 Z" transform="translate(88,44) rotate(296) scale(1.38)" fill="#5a3d26" opacity="0.105"/><path d="M0,-36 C21,-21 21,21 0,36 C-21,21 -21,-21 0,-36 Z" transform="translate(1135,441) rotate(247) scale(2.18)" fill="#5a3d26" opacity="0.105"/><path d="M0,-36 C21,-21 21,21 0,36 C-21,21 -21,-21 0,-36 Z" transform="translate(1042,242) rotate(204) scale(0.69)" fill="#5a3d26" opacity="0.069"/><path d="M0,-36 C21,-21 21,21 0,36 C-21,21 -21,-21 0,-36 Z" transform="translate(1241,978) rotate(251) scale(1.13)" fill="#5a3d26" opacity="0.085"/><path d="M0,-36 C21,-21 21,21 0,36 C-21,21 -21,-21 0,-36 Z" transform="translate(437,863) rotate(84) scale(1.00)" fill="#5a3d26" opacity="0.088"/><path d="M0,-36 C21,-21 21,21 0,36 C-21,21 -21,-21 0,-36 Z" transform="translate(825,1039) rotate(214) scale(1.75)" fill="#5a3d26" opacity="0.069"/><path d="M0,-36 C21,-21 21,21 0,36 C-21,21 -21,-21 0,-36 Z" transform="translate(910,680) rotate(244) scale(0.61)" fill="#5a3d26" opacity="0.085"/><path d="M0,-36 C21,-21 21,21 0,36 C-21,21 -21,-21 0,-36 Z" transform="translate(1088,1018) rotate(261) scale(0.47)" fill="#5a3d26" opacity="0.063"/><path d="M0,-36 C21,-21 21,21 0,36 C-21,21 -21,-21 0,-36 Z" transform="translate(807,918) rotate(181) scale(1.82)" fill="#5a3d26" opacity="0.122"/><path d="M0,-36 C21,-21 21,21 0,36 C-21,21 -21,-21 0,-36 Z" transform="translate(879,308) rotate(191) scale(0.97)" fill="#5a3d26" opacity="0.116"/><path d="M0,-36 C21,-21 21,21 0,36 C-21,21 -21,-21 0,-36 Z" transform="translate(1038,516) rotate(23) scale(0.97)" fill="#5a3d26" opacity="0.108"/><path d="M0,-36 C21,-21 21,21 0,36 C-21,21 -21,-21 0,-36 Z" transform="translate(-8,166) rotate(234) scale(2.22)" fill="#5a3d26" opacity="0.102"/><path d="M0,-36 C21,-21 21,21 0,36 C-21,21 -21,-21 0,-36 Z" transform="translate(700,436) rotate(164) scale(1.26)" fill="#5a3d26" opacity="0.083"/><path d="M0,-36 C21,-21 21,21 0,36 C-21,21 -21,-21 0,-36 Z" transform="translate(-14,18) rotate(104) scale(1.72)" fill="#5a3d26" opacity="0.059"/><path d="M0,-36 C21,-21 21,21 0,36 C-21,21 -21,-21 0,-36 Z" transform="translate(167,234) rotate(183) scale(0.60)" fill="#5a3d26" opacity="0.066"/><path d="M0,-36 C21,-21 21,21 0,36 C-21,21 -21,-21 0,-36 Z" transform="translate(12,1101) rotate(100) scale(2.12)" fill="#5a3d26" opacity="0.132"/><path d="M0,-36 C21,-21 21,21 0,36 C-21,21 -21,-21 0,-36 Z" transform="translate(-11,1492) rotate(116) scale(0.76)" fill="#5a3d26" opacity="0.104"/><path d="M0,-36 C21,-21 21,21 0,36 C-21,21 -21,-21 0,-36 Z" transform="translate(-41,1404) rotate(46) scale(0.75)" fill="#5a3d26" opacity="0.107"/><path d="M0,-36 C21,-21 21,21 0,36 C-21,21 -21,-21 0,-36 Z" transform="translate(319,72) rotate(16) scale(1.26)" fill="#5a3d26" opacity="0.124"/><path d="M0,-36 C21,-21 21,21 0,36 C-21,21 -21,-21 0,-36 Z" transform="translate(1249,1) rotate(193) scale(1.16)" fill="#5a3d26" opacity="0.069"/><path d="M0,-36 C21,-21 21,21 0,36 C-21,21 -21,-21 0,-36 Z" transform="translate(947,555) rotate(216) scale(2.23)" fill="#5a3d26" opacity="0.068"/><path d="M0,-36 C21,-21 21,21 0,36 C-21,21 -21,-21 0,-36 Z" transform="translate(-29,399) rotate(89) scale(1.21)" fill="#5a3d26" opacity="0.140"/><path d="M0,-36 C21,-21 21,21 0,36 C-21,21 -21,-21 0,-36 Z" transform="translate(1077,1) rotate(313) scale(1.26)" fill="#5a3d26" opacity="0.107"/><path d="M0,-36 C21,-21 21,21 0,36 C-21,21 -21,-21 0,-36 Z" transform="translate(360,1464) rotate(93) scale(1.74)" fill="#5a3d26" opacity="0.059"/><path d="M0,-36 C21,-21 21,21 0,36 C-21,21 -21,-21 0,-36 Z" transform="translate(95,742) rotate(186) scale(2.11)" fill="#5a3d26" opacity="0.082"/><path d="M0,-36 C21,-21 21,21 0,36 C-21,21 -21,-21 0,-36 Z" transform="translate(556,871) rotate(330) scale(1.08)" fill="#5a3d26" opacity="0.054"/><path d="M0,-36 C21,-21 21,21 0,36 C-21,21 -21,-21 0,-36 Z" transform="translate(982,1029) rotate(172) scale(1.30)" fill="#5a3d26" opacity="0.089"/><path d="M0,-36 C21,-21 21,21 0,36 C-21,21 -21,-21 0,-36 Z" transform="translate(323,104) rotate(308) scale(0.97)" fill="#5a3d26" opacity="0.078"/><path d="M0,-36 C21,-21 21,21 0,36 C-21,21 -21,-21 0,-36 Z" transform="translate(763,548) rotate(74) scale(0.89)" fill="#5a3d26" opacity="0.134"/><path d="M0,-36 C21,-21 21,21 0,36 C-21,21 -21,-21 0,-36 Z" transform="translate(899,1038) rotate(152) scale(0.75)" fill="#5a3d26" opacity="0.062"/><path d="M0,-36 C21,-21 21,21 0,36 C-21,21 -21,-21 0,-36 Z" transform="translate(379,1489) rotate(58) scale(1.20)" fill="#5a3d26" opacity="0.109"/><path d="M0,-36 C21,-21 21,21 0,36 C-21,21 -21,-21 0,-36 Z" transform="translate(-22,1290) rotate(27) scale(0.60)" fill="#5a3d26" opacity="0.080"/><path d="M0,-36 C21,-21 21,21 0,36 C-21,21 -21,-21 0,-36 Z" transform="translate(690,307) rotate(112) scale(1.42)" fill="#5a3d26" opacity="0.089"/><path d="M0,-36 C21,-21 21,21 0,36 C-21,21 -21,-21 0,-36 Z" transform="translate(1090,19) rotate(231) scale(0.52)" fill="#5a3d26" opacity="0.141"/><path d="M0,-36 C21,-21 21,21 0,36 C-21,21 -21,-21 0,-36 Z" transform="translate(1045,1076) rotate(343) scale(1.32)" fill="#5a3d26" opacity="0.121"/><path d="M0,-36 C21,-21 21,21 0,36 C-21,21 -21,-21 0,-36 Z" transform="translate(1013,803) rotate(320) scale(1.61)" fill="#5a3d26" opacity="0.143"/><path d="M0,-36 C21,-21 21,21 0,36 C-21,21 -21,-21 0,-36 Z" transform="translate(237,491) rotate(251) scale(2.07)" fill="#5a3d26" opacity="0.119"/><path d="M0,-36 C21,-21 21,21 0,36 C-21,21 -21,-21 0,-36 Z" transform="translate(1132,1) rotate(192) scale(1.43)" fill="#5a3d26" opacity="0.058"/><path d="M0,-36 C21,-21 21,21 0,36 C-21,21 -21,-21 0,-36 Z" transform="translate(294,1337) rotate(359) scale(2.21)" fill="#5a3d26" opacity="0.099"/><path d="M0,-36 C21,-21 21,21 0,36 C-21,21 -21,-21 0,-36 Z" transform="translate(900,1234) rotate(174) scale(1.28)" fill="#5a3d26" opacity="0.129"/><path d="M0,-36 C21,-21 21,21 0,36 C-21,21 -21,-21 0,-36 Z" transform="translate(173,53) rotate(130) scale(1.20)" fill="#5a3d26" opacity="0.136"/><path d="M0,-36 C21,-21 21,21 0,36 C-21,21 -21,-21 0,-36 Z" transform="translate(940,601) rotate(38) scale(0.55)" fill="#5a3d26" opacity="0.083"/><path d="M0,-36 C21,-21 21,21 0,36 C-21,21 -21,-21 0,-36 Z" transform="translate(500,780) rotate(38) scale(0.65)" fill="#5a3d26" opacity="0.059"/><path d="M0,-36 C21,-21 21,21 0,36 C-21,21 -21,-21 0,-36 Z" transform="translate(1125,280) rotate(67) scale(0.48)" fill="#5a3d26" opacity="0.115"/><path d="M0,-36 C21,-21 21,21 0,36 C-21,21 -21,-21 0,-36 Z" transform="translate(505,943) rotate(266) scale(0.63)" fill="#5a3d26" opacity="0.120"/><path d="M0,-36 C21,-21 21,21 0,36 C-21,21 -21,-21 0,-36 Z" transform="translate(1224,96) rotate(253) scale(0.75)" fill="#5a3d26" opacity="0.092"/><path d="M0,-36 C21,-21 21,21 0,36 C-21,21 -21,-21 0,-36 Z" transform="translate(907,761) rotate(202) scale(0.73)" fill="#5a3d26" opacity="0.078"/><path d="M0,-36 C21,-21 21,21 0,36 C-21,21 -21,-21 0,-36 Z" transform="translate(953,100) rotate(79) scale(1.75)" fill="#5a3d26" opacity="0.143"/><path d="M0,-36 C21,-21 21,21 0,36 C-21,21 -21,-21 0,-36 Z" transform="translate(976,213) rotate(67) scale(2.00)" fill="#5a3d26" opacity="0.077"/><path d="M0,-36 C21,-21 21,21 0,36 C-21,21 -21,-21 0,-36 Z" transform="translate(1180,2) rotate(124) scale(0.78)" fill="#5a3d26" opacity="0.141"/><path d="M0,-36 C21,-21 21,21 0,36 C-21,21 -21,-21 0,-36 Z" transform="translate(-54,31) rotate(170) scale(0.64)" fill="#5a3d26" opacity="0.141"/><path d="M0,-36 C21,-21 21,21 0,36 C-21,21 -21,-21 0,-36 Z" transform="translate(261,705) rotate(343) scale(1.30)" fill="#5a3d26" opacity="0.054"/><path d="M0,-36 C21,-21 21,21 0,36 C-21,21 -21,-21 0,-36 Z" transform="translate(1233,23) rotate(178) scale(0.81)" fill="#5a3d26" opacity="0.133"/><path d="M0,-36 C21,-21 21,21 0,36 C-21,21 -21,-21 0,-36 Z" transform="translate(870,1116) rotate(336) scale(0.53)" fill="#5a3d26" opacity="0.124"/><path d="M0,-36 C21,-21 21,21 0,36 C-21,21 -21,-21 0,-36 Z" transform="translate(69,327) rotate(144) scale(1.07)" fill="#5a3d26" opacity="0.147"/><path d="M0,-36 C21,-21 21,21 0,36 C-21,21 -21,-21 0,-36 Z" transform="translate(738,661) rotate(188) scale(1.13)" fill="#5a3d26" opacity="0.128"/><path d="M0,-36 C21,-21 21,21 0,36 C-21,21 -21,-21 0,-36 Z" transform="translate(939,477) rotate(255) scale(1.59)" fill="#5a3d26" opacity="0.148"/><path d="M0,-36 C21,-21 21,21 0,36 C-21,21 -21,-21 0,-36 Z" transform="translate(1018,1267) rotate(32) scale(0.51)" fill="#5a3d26" opacity="0.124"/><path d="M0,-36 C21,-21 21,21 0,36 C-21,21 -21,-21 0,-36 Z" transform="translate(1145,990) rotate(11) scale(0.79)" fill="#5a3d26" opacity="0.149"/><path d="M0,-36 C21,-21 21,21 0,36 C-21,21 -21,-21 0,-36 Z" transform="translate(1029,1475) rotate(175) scale(0.67)" fill="#5a3d26" opacity="0.104"/><path d="M0,-36 C21,-21 21,21 0,36 C-21,21 -21,-21 0,-36 Z" transform="translate(107,1020) rotate(238) scale(1.00)" fill="#5a3d26" opacity="0.134"/><path d="M0,-36 C21,-21 21,21 0,36 C-21,21 -21,-21 0,-36 Z" transform="translate(-27,29) rotate(324) scale(1.40)" fill="#5a3d26" opacity="0.086"/><path d="M0,-36 C21,-21 21,21 0,36 C-21,21 -21,-21 0,-36 Z" transform="translate(1024,541) rotate(71) scale(1.90)" fill="#5a3d26" opacity="0.102"/><path d="M0,-36 C21,-21 21,21 0,36 C-21,21 -21,-21 0,-36 Z" transform="translate(1148,579) rotate(122) scale(1.23)" fill="#5a3d26" opacity="0.136"/><path d="M0,-36 C21,-21 21,21 0,36 C-21,21 -21,-21 0,-36 Z" transform="translate(204,1070) rotate(257) scale(0.64)" fill="#5a3d26" opacity="0.055"/></g></svg>