<svg xmlns="http://www.w3.org/2000/svg" width="1600" height="1100" viewBox="0 0 1600 1100"><defs><filter id="b" x="-25%" y="-25%" width="150%" height="150%"><feGaussianBlur stdDeviation="4"/></filter></defs><g filter="url(#b)"><path d="M0,-40 C24,-23 24,23 0,40 C-24,23 -24,-23 0,-40 Z" transform="translate(74,1041) rotate(14) scale(2.16)" fill="#5a3d26" opacity="0.123"/><path d="M0,-40 C24,-23 24,23 0,40 C-24,23 -24,-23 0,-40 Z" transform="translate(906,505) rotate(21) scale(2.93)" fill="#5a3d26" opacity="0.055"/><path d="M0,-40 C24,-23 24,23 0,40 C-24,23 -24,-23 0,-40 Z" transform="translate(1571,452) rotate(61) scale(2.63)" fill="#5a3d26" opacity="0.115"/><path d="M0,-40 C24,-23 24,23 0,40 C-24,23 -24,-23 0,-40 Z" transform="translate(413,867) rotate(226) scale(1.21)" fill="#5a3d26" opacity="0.066"/><path d="M0,-40 C24,-23 24,23 0,40 C-24,23 -24,-23 0,-40 Z" transform="translate(1203,492) rotate(152) scale(2.69)" fill="#5a3d26" opacity="0.136"/><path d="M0,-40 C24,-23 24,23 0,40 C-24,23 -24,-23 0,-40 Z" transform="translate(344,870) rotate(190) scale(3.15)" fill="#5a3d26" opacity="0.094"/><path d="M0,-40 C24,-23 24,23 0,40 C-24,23 -24,-23 0,-40 Z" transform="translate(1059,587) rotate(325) scale(2.38)" fill="#5a3d26" opacity="0.145"/><path d="M0,-40 C24,-23 24,23 0,40 C-24,23 -24,-23 0,-40 Z" transform="translate(1202,1015) rotate(353) scale(2.35)" fill="#5a3d26" opacity="0.129"/><path d="M0,-40 C24,-23 24,23 0,40 C-24,23 -24,-23 0,-40 Z" transform="translate(1212,811) rotate(144) scale(3.07)" fill="#5a3d26" opacity="0.068"/><path d="M0,-40 C24,-23 24,23 0,40 C-24,23 -24,-23 0,-40 Z" transform="translate(1532,571) rotate(283) scale(2.18)" fill="#5a3d26" opacity="0.065"/><path d="M0,-40 C24,-23 24,23 0,40 C-24,23 -24,-23 0,-40 Z" transform="translate(1495,865) rotate(282) scale(1.43)" fill="#5a3d26" opacity="0.134"/><path d="M0,-40 C24,-23 24,23 0,40 C-24,23 -24,-23 0,-40 Z" transform="translate(621,2) rotate(223) scale(1.72)" fill="#5a3d26" opacity="0.142"/><path d="M0,-40 C24,-23 24,23 0,40 C-24,23 -24,-23 0,-40 Z" transform="translate(1449,895) rotate(46) scale(1.82)" fill="#5a3d26" opacity="0.124"/><path d="M0,-40 C24,-23 24,23 0,40 C-24,23 -24,-23 0,-40 Z" transform="translate(176,178) rotate(46) scale(3.16)" fill="#5a3d26" opacity="0.102"/><path d="M0,-40 C24,-23 24,23 0,40 C-24,23 -24,-23 0,-40 Z" transform="translate(253,6) rotate(41) scale(1.44)" fill="#5a3d26" opacity="0.072"/><path d="M0,-40 C24,-23 24,23 0,40 C-24,23 -24,-23 0,-40 Z" transform="translate(944,43) rotate(27) scale(2.36)" fill="#5a3d26" opacity="0.089"/><path d="M0,-40 C24,-23 24,23 0,40 C-24,23 -24,-23 0,-40 Z" transform="translate(1222,2) rotate(30) scale(1.87)" fill="#5a3d26" opacity="0.120"/><path d="M0,-40 C24,-23 24,23 0,40 C-24,23 -24,-23 0,-40 Z" transform="translate(1498,530) rotate(325) scale(1.70)" fill="#5a3d26" opacity="0.096"/><path d="M0,-40 C24,-23 24,23 0,40 C-24,23 -24,-23 0,-40 Z" transform="translate(222,686) rotate(307) scale(2.79)" fill="#5a3d26" opacity="0.076"/><path d="M0,-40 C24,-23 24,23 0,40 C-24,23 -24,-23 0,-40 Z" transform="translate(1563,1089) rotate(9) scale(1.26)" fill="#5a3d26" opacity="0.113"/><path d="M0,-40 C24,-23 24,23 0,40 C-24,23 -24,-23 0,-40 Z" transform="translate(-81,431) rotate(312) scale(1.25)" fill="#5a3d26" opacity="0.073"/><path d="M0,-40 C24,-23 24,23 0,40 C-24,23 -24,-23 0,-40 Z" transform="translate(1648,1018) rotate(69) scale(3.97)" fill="#5a3d26" opacity="0.082"/><path d="M0,-40 C24,-23 24,23 0,40 C-24,23 -24,-23 0,-40 Z" transform="translate(1451,548) rotate(273) scale(3.30)" fill="#5a3d26" opacity="0.158"/><path d="M0,-40 C24,-23 24,23 0,40 C-24,23 -24,-23 0,-40 Z" transform="translate(204,288) rotate(257) scale(1.16)" fill="#5a3d26" opacity="0.133"/><path d="M0,-40 C24,-23 24,23 0,40 C-24,23 -24,-23 0,-40 Z" transform="translate(133,390) rotate(220) scale(2.77)" fill="#5a3d26" opacity="0.070"/><path d="M0,-40 C24,-23 24,23 0,40 C-24,23 -24,-23 0,-40 Z" transform="translate(478,153) rotate(274) scale(2.44)" fill="#5a3d26" opacity="0.062"/><path d="M0,-40 C24,-23 24,23 0,40 C-24,23 -24,-23 0,-40 Z" transform="translate(290,43) rotate(316) scale(1.62)" fill="#5a3d26" opacity="0.136"/><path d="M0,-40 C24,-23 24,23 0,40 C-24,23 -24,-23 0,-40 Z" transform="translate(764,45) rotate(237) scale(1.64)" fill="#5a3d26" opacity="0.148"/><path d="M0,-40 C24,-23 24,23 0,40 C-24,23 -24,-23 0,-40 Z" transform="translate(1483,168) rotate(139) scale(3.39)" fill="#5a3d26" opacity="0.154"/><path d="M0,-40 C24,-23 24,23 0,40 C-24,23 -24,-23 0,-40 Z" transform="translate(1351,346) rotate(159) scale(1.79)" fill="#5a3d26" opacity="0.153"/><path d="M0,-40 C24,-23 24,23 0,40 C-24,23 -24,-23 0,-40 Z" transform="translate(1322,51) rotate(50) scale(2.22)" fill="#5a3d26" opacity="0.145"/><path d="M0,-40 C24,-23 24,23 0,40 C-24,23 -24,-23 0,-40 Z" transform="translate(0,593) rotate(201) scale(3.48)" fill="#5a3d26" opacity="0.137"/><path d="M0,-40 C24,-23 24,23 0,40 C-24,23 -24,-23 0,-40 Z" transform="translate(1476,314) rotate(106) scale(2.03)" fill="#5a3d26" opacity="0.102"/><path d="M0,-40 C24,-23 24,23 0,40 C-24,23 -24,-23 0,-40 Z" transform="translate(1542,991) rotate(74) scale(2.08)" fill="#5a3d26" opacity="0.122"/><path d="M0,-40 C24,-23 24,23 0,40 C-24,23 -24,-23 0,-40 Z" transform="translate(1026,81) rotate(98) scale(3.26)" fill="#5a3d26" opacity="0.123"/><path d="M0,-40 C24,-23 24,23 0,40 C-24,23 -24,-23 0,-40 Z" transform="translate(33,987) rotate(191) scale(3.37)" fill="#5a3d26" opacity="0.137"/><path d="M0,-40 C24,-23 24,23 0,40 C-24,23 -24,-23 0,-40 Z" transform="translate(1311,459) rotate(319) scale(3.01)" fill="#5a3d26" opacity="0.133"/><path d="M0,-40 C24,-23 24,23 0,40 C-24,23 -24,-23 0,-40 Z" transform="translate(1331,327) rotate(147) scale(1.39)" fill="#5a3d26" opacity="0.129"/><path d="M0,-40 C24,-23 24,23 0,40 C-24,23 -24,-23 0,-40 Z" transform="translate(-65,664) rotate(57) scale(3.62)" fill="#5a3d26" opacity="0.107"/><path d="M0,-40 C24,-23 24,23 0,40 C-24,23 -24,-23 0,-40 Z" transform="translate(1512,1069) rotate(126) scale(1.23)" fill="#5a3d26" opacity="0.077"/><path d="M0,-40 C24,-23 24,23 0,40 C-24,23 -24,-23 0,-40 Z" transform="translate(87,1096) rotate(197) scale(2.94)" fill="#5a3d26" opacity="0.079"/><path d="M0,-40 C24,-23 24,23 0,40 C-24,23 -24,-23 0,-40 Z" transform="translate(1471,967) rotate(168) scale(3.75)" fill="#5a3d26" opacity="0.099"/><path d="M0,-40 C24,-23 24,23 0,40 C-24,23 -24,-23 0,-40 Z" transform="translate(249,92) rotate(225) scale(2.45)" fill="#5a3d26" opacity="0.082"/><path d="M0,-40 C24,-23 24,23 0,40 C-24,23 -24,-23 0,-40 Z" transform="translate(1676,714) rotate(190) scale(2.10)" fill="#5a3d26" opacity="0.153"/><path d="M0,-40 C24,-23 24,23 0,40 C-24,23 -24,-23 0,-40 Z" transform="translate(266,245) rotate(67) scale(3.92)" fill="#5a3d26" opacity="0.099"/><path d="M0,-40 C24,-23 24,23 0,40 C-24,23 -24,-23 0,-40 Z" transform="translate(516,961) rotate(300) scale(1.84)" fill="#5a3d26" opacity="0.057"/><path d="M0,-40 C24,-23 24,23 0,40 C-24,23 -24,-23 0,-40 Z" transform="translate(1425,420) rotate(360) scale(2.50)" fill="#5a3d26" opacity="0.109"/><path d="M0,-40 C24,-23 24,23 0,40 C-24,23 -24,-23 0,-40 Z" transform="translate(-62,499) rotate(152) scale(3.24)" fill="#5a3d26" opacity="0.089"/><path d="M0,-40 C24,-23 24,23 0,40 C-24,23 -24,-23 0,-40 Z" transform="translate(-2,944) rotate(254) scale(1.58)" fill="#5a3d26" opacity="0.052"/><path d="M0,-40 C24,-23 24,23 0,40 C-24,23 -24,-23 0,-40 Z" transform="translate(186,217) rotate(322) scale(3.42)" fill="#5a3d26" opacity="0.097"/><path d="M0,-40 C24,-23 24,23 0,40 C-24,23 -24,-23 0,-40 Z" transform="translate(1670,186) rotate(236) scale(2.52)" fill="#5a3d26" opacity="0.138"/><path d="M0,-40 C24,-23 24,23 0,40 C-24,23 -24,-23 0,-40 Z" transform="translate(1259,744) rotate(114) scale(3.80)" fill="#5a3d26" opacity="0.128"/><path d="M0,-40 C24,-23 24,23 0,40 C-24,23 -24,-23 0,-40 Z" transform="translate(-43,158) rotate(113) scale(3.68)" fill="#5a3d26" opacity="0.092"/><path d="M0,-40 C24,-23 24,23 0,40 C-24,23 -24,-23 0,-40 Z" transform="translate(-34,651) rotate(123) scale(1.49)" fill="#5a3d26" opacity="0.063"/><path d="M0,-40 C24,-23 24,23 0,40 C-24,23 -24,-23 0,-40 Z" transform="translate(-56,68) rotate(171) scale(1.65)" fill="#5a3d26" opacity="0.145"/></g></svg>